<svg xmlns="http://www.w3.org/2000/svg" xmlns:xlink="http://www.w3.org/1999/xlink" viewBox="0 0 39.26 39.58"><defs><style>.cls-1{fill:url(#linear-gradient);}</style><linearGradient id="linear-gradient" x1="12.16" y1="34.76" x2="42.1" y2="4.82" gradientUnits="userSpaceOnUse"><stop offset="0" stop-color="#ed695e"/><stop offset="0.45" stop-color="#f3955f"/><stop offset="1" stop-color="#f59f0e"/></linearGradient></defs><g id="Layer_2" data-name="Layer 2"><g id="Layer_1-2" data-name="Layer 1"><path class="cls-1" d="M35.89,6.74H21a3.38,3.38,0,0,1-3.37-3.37h0A3.38,3.38,0,0,1,21,0h14.9a3.38,3.38,0,0,1,3.37,3.37h0A3.38,3.38,0,0,1,35.89,6.74Zm-7.45,4.84h0a3.38,3.38,0,0,0-3.37-3.37H10.17A3.38,3.38,0,0,0,6.8,11.58h0A3.37,3.37,0,0,0,10.17,15h14.9A3.38,3.38,0,0,0,28.44,11.58Zm-6.8,8.21h0a3.38,3.38,0,0,0-3.37-3.37H3.37A3.38,3.38,0,0,0,0,19.79H0a3.38,3.38,0,0,0,3.37,3.37h14.9A3.37,3.37,0,0,0,21.64,19.79ZM28.44,28h0a3.38,3.38,0,0,0-3.37-3.37H10.17A3.38,3.38,0,0,0,6.8,28h0a3.37,3.37,0,0,0,3.37,3.37h14.9A3.38,3.38,0,0,0,28.44,28Zm10.82,8.21h0a3.38,3.38,0,0,0-3.37-3.37H21a3.38,3.38,0,0,0-3.37,3.37h0A3.37,3.37,0,0,0,21,39.58h14.9A3.37,3.37,0,0,0,39.26,36.21Z"/></g></g></svg>