<svg xmlns="http://www.w3.org/2000/svg" xmlns:xlink="http://www.w3.org/1999/xlink" viewBox="0 0 297.02 46.36"><defs><style>.cls-1{fill:#fff;}.cls-2{fill:url(#linear-gradient);}.cls-3{fill:url(#linear-gradient-2);}</style><linearGradient id="linear-gradient" x1="221.15" y1="55.19" x2="278.18" y2="-1.84" gradientUnits="userSpaceOnUse"><stop offset="0" stop-color="#ed695e"/><stop offset="0.45" stop-color="#f3955f"/><stop offset="1" stop-color="#f59f0e"/></linearGradient><linearGradient id="linear-gradient-2" x1="12.16" y1="41.54" x2="42.1" y2="11.6" xlink:href="#linear-gradient"/></defs><g id="Layer_2" data-name="Layer 2"><g id="Layer_1-2" data-name="Layer 1"><path class="cls-1" d="M71.26,14.94a3.92,3.92,0,0,1,2,3.35,3.13,3.13,0,0,1-2.9,3.3c-.65,0-.85-.05-2.65-.75a7.17,7.17,0,0,0-2.65-.55c-3.15,0-5.4,2.65-5.4,6.35s2.25,6.3,5.6,6.3a7.23,7.23,0,0,0,2.9-.7,3.89,3.89,0,0,1,2.1-.65,3.17,3.17,0,0,1,3,3.35,3.54,3.54,0,0,1-1.4,2.7,13,13,0,0,1-7.35,2.15,11.63,11.63,0,0,1-8.9-3.8c-2.35-2.55-3.35-5.35-3.35-9.45s1.35-7.5,3.8-9.7a13.33,13.33,0,0,1,8.75-3.4A13.68,13.68,0,0,1,71.26,14.94Z"/><path class="cls-1" d="M83.46,15.54a12.22,12.22,0,0,1,6.75-2.1,9.48,9.48,0,0,1,6.45,2.45c1.8,1.65,2.5,3.65,2.5,6.85v12c0,1.75,0,2.2-.5,3a3.65,3.65,0,0,1-6.35,0c-.45-.85-.5-1.25-.5-3v-9.9c0-3.15-1.55-5.05-4.1-5.05a4.29,4.29,0,0,0-4.25,4.55v10.4c0,1.75,0,2.2-.5,3a3.65,3.65,0,0,1-6.35,0c-.45-.85-.51-1.25-.51-3V4.9c0-1.75.06-2.2.51-3.05a3.65,3.65,0,0,1,6.35,0c.45.85.5,1.25.5,3.05Z"/><path class="cls-1" d="M103.11,17.79c0-2.55,1.45-4.2,3.7-4.2a3.84,3.84,0,0,1,3.65,2.6c2.05-2.05,3.35-2.75,5.05-2.75a3.76,3.76,0,0,1,3.75,3.8c0,1.75-.75,2.45-3.75,3.35-4,1.35-5.15,2.45-5.05,4.9v9.25c0,1.75,0,2.2-.5,3a3.65,3.65,0,0,1-6.35,0c-.45-.85-.5-1.25-.5-3Z"/><path class="cls-1" d="M140.28,17.44a13.46,13.46,0,0,1,3.3,9.2c0,7.5-5.25,13.15-12.25,13.15a12.27,12.27,0,0,1-9-4,13.35,13.35,0,0,1-3.3-9.35c0-7.3,5.35-13,12.31-13A12.24,12.24,0,0,1,140.28,17.44Zm-14,9.1c0,3.7,2.1,6.4,4.91,6.4s5.15-2.8,5.15-6.35-2.25-6.3-5.15-6.3S126.27,23,126.27,26.54Z"/><path class="cls-1" d="M146.27,17.89c0-2.6,1.5-4.3,3.75-4.3,1.65,0,2.7.75,3.4,2.55a8.72,8.72,0,0,1,6.75-2.7,9.57,9.57,0,0,1,6.41,2.2c1.95,1.75,2.65,3.55,2.65,7.05V34.74c0,1.75,0,2.2-.5,3a3.6,3.6,0,0,1-3.15,1.85,3.65,3.65,0,0,1-3.21-1.85c-.44-.85-.5-1.25-.5-3V24.44c0-2.85-1.6-4.65-4.1-4.65a4.19,4.19,0,0,0-4.15,4.35v10.6c0,1.75-.05,2.2-.5,3a3.65,3.65,0,0,1-6.35,0c-.45-.85-.5-1.25-.5-3Z"/><path class="cls-1" d="M193.06,17.09a13.46,13.46,0,0,1,3.29,9.2c0,7.5-5.25,13.15-12.25,13.15a12.27,12.27,0,0,1-9-4,13.35,13.35,0,0,1-3.3-9.35c0-7.3,5.35-13,12.3-13A12.28,12.28,0,0,1,193.06,17.09Zm-14,9.1c0,3.7,2.1,6.4,4.9,6.4s5.15-2.8,5.15-6.35-2.25-6.3-5.15-6.3C181.2,19.94,179.05,22.69,179.05,26.19Z"/><path class="cls-2" d="M216.05,4.9c0-1.75,0-2.2.5-3.05a3.65,3.65,0,0,1,6.35,0c.45.85.5,1.25.5,3.05V35.44c0,2.65-1.35,4.2-3.7,4.2-1.8,0-2.8-.8-3.55-2.9a7.08,7.08,0,0,1-6.35,3,10.18,10.18,0,0,1-8.4-4.6,15.75,15.75,0,0,1-2.75-8.75,14.18,14.18,0,0,1,4.5-10.3,11.32,11.32,0,0,1,6.95-2.7,8.7,8.7,0,0,1,6,2.3ZM206,26.19c0,3.7,2.15,6.4,5.1,6.4s5-2.75,5-6.35-2.15-6.3-5-6.3S206,22.64,206,26.19ZM234,29c1.1,2.95,3,4.35,5.85,4.35,1.75,0,2.2-.15,6-2.05a4.16,4.16,0,0,1,1.6-.35,3.14,3.14,0,0,1,3,3c0,3-5.35,5.8-11,5.8-7.85,0-13.35-5.3-13.35-12.8,0-7.8,5.35-13.55,12.6-13.55,6.85,0,12.2,5.55,12.2,12.7,0,2.05-.95,2.9-3.2,2.9Zm9.65-5a7.93,7.93,0,0,0-1-2.7,4.57,4.57,0,0,0-3.75-1.9c-2.45,0-4.05,1.4-5.1,4.6Zm27.31-5.55a3.17,3.17,0,0,1-2.85,3.2c-.8,0-.85,0-3.1-1a7.11,7.11,0,0,0-2.8-.75c-1.2,0-1.95.5-1.95,1.3,0,1,.4,1.2,3.85,2.55,3.25,1.3,4.3,1.9,5.6,3.2a6.63,6.63,0,0,1,1.8,4.6c0,4.85-3.95,8.2-9.7,8.2-5,0-9.4-2.5-9.4-5.3a3.36,3.36,0,0,1,3.05-3.3c.85,0,.85,0,3.8,1.3a7.27,7.27,0,0,0,2.95.8,2,2,0,0,0,2.15-1.7c0-.85-.55-1.3-2.8-2.15-3.65-1.35-4.65-1.85-5.9-2.75a5.9,5.9,0,0,1-2.5-5.3c0-4.55,4.05-8,9.45-8C267,13.44,270.94,15.79,270.94,18.49Zm10.93,16.25c0,1.75-.05,2.2-.5,3a3.65,3.65,0,0,1-6.35,0c-.45-.85-.5-1.25-.5-3V4.9c0-1.75.05-2.2.5-3.05a3.65,3.65,0,0,1,6.35,0c.45.85.5,1.25.5,3.05V22.24l6.75-6.9c1.45-1.5,2.2-1.9,3.35-1.9a3.6,3.6,0,0,1,3.6,3.65c0,1.1-.45,1.85-2,3.3L289,24.79l6.4,8C296.67,34.29,297,35,297,36a3.72,3.72,0,0,1-3.75,3.65c-1.35,0-2.15-.55-3.55-2.35l-7.85-10Z"/><path class="cls-3" d="M35.89,13.52H21a3.38,3.38,0,0,1-3.37-3.37h0A3.37,3.37,0,0,1,21,6.78h14.9a3.37,3.37,0,0,1,3.37,3.37h0A3.38,3.38,0,0,1,35.89,13.52Zm-7.45,4.84h0A3.38,3.38,0,0,0,25.07,15H10.17A3.38,3.38,0,0,0,6.8,18.36h0a3.38,3.38,0,0,0,3.37,3.37h14.9A3.38,3.38,0,0,0,28.44,18.36Zm-6.8,8.21h0a3.38,3.38,0,0,0-3.37-3.37H3.37A3.38,3.38,0,0,0,0,26.57H0a3.38,3.38,0,0,0,3.37,3.37h14.9A3.38,3.38,0,0,0,21.64,26.57Zm6.8,8.21h0a3.38,3.38,0,0,0-3.37-3.37H10.17A3.38,3.38,0,0,0,6.8,34.78h0a3.38,3.38,0,0,0,3.37,3.37h14.9A3.38,3.38,0,0,0,28.44,34.78ZM39.26,43h0a3.38,3.38,0,0,0-3.37-3.37H21A3.38,3.38,0,0,0,17.62,43h0A3.37,3.37,0,0,0,21,46.36h14.9A3.37,3.37,0,0,0,39.26,43Z"/></g></g></svg>